<svg width="44" height="44" viewBox="0 0 44 44" fill="none" xmlns="http://www.w3.org/2000/svg">
<path d="M34 14H10C8.89543 14 8 14.8954 8 16V34C8 35.1046 8.89543 36 10 36H34C35.1046 36 36 35.1046 36 34V16C36 14.8954 35.1046 14 34 14Z" stroke="#CB2123" stroke-width="1.2"/>
<path d="M15 14V10C15 8.14348 15.7375 6.36301 17.0503 5.05025C18.363 3.7375 20.1435 3 22 3C23.8565 3 25.637 3.7375 26.9497 5.05025C28.2625 6.36301 29 8.14348 29 10V14" stroke="#CB2123" stroke-width="1.2"/>
<path d="M22 28C23.6569 28 25 26.6569 25 25C25 23.3431 23.6569 22 22 22C20.3431 22 19 23.3431 19 25C19 26.6569 20.3431 28 22 28Z" stroke="#CB2123" stroke-width="1.2"/>
</svg>
