<svg width="42" height="42" viewBox="0 0 42 42" fill="none" xmlns="http://www.w3.org/2000/svg">
<path d="M31.75 6.74902C32.5457 6.74902 33.3087 7.0651 33.8713 7.62771C34.434 8.19032 34.75 8.95339 34.75 9.74904C34.75 10.5447 34.434 11.3078 33.8713 11.8704C33.3087 12.433 32.5457 12.7491 31.75 12.7491C30.9544 12.7491 30.1913 12.433 29.6287 11.8704C29.0661 11.3078 28.75 10.5447 28.75 9.74904C28.75 8.95339 29.0661 8.19032 29.6287 7.62771C30.1913 7.0651 30.9544 6.74902 31.75 6.74902Z" stroke="#CB2123" stroke-width="1.5" stroke-linecap="round" stroke-linejoin="round"/>
<path d="M2.29778 19.0371C0.291771 21.2771 0.249771 24.6571 2.08978 27.0371C5.66382 31.6767 9.82226 35.8352 14.4619 39.4092C16.8419 41.2492 20.2219 41.2072 22.4619 39.2012C28.5171 33.7849 34.2069 27.9735 39.494 21.8051C40.0278 21.1916 40.3565 20.4266 40.434 19.6171C40.762 16.0251 41.44 5.67701 38.63 2.869C35.82 0.0609786 25.4739 0.736983 21.8819 1.06698C21.0724 1.14454 20.3074 1.4732 19.6939 2.00699C13.5256 7.29345 7.71418 12.9826 2.29778 19.0371Z" stroke="#CB2123" stroke-width="1.5"/>
<path d="M24.3277 21.4832C24.3717 20.6812 24.5957 19.2132 23.3757 18.0972C22.9102 17.6927 22.3681 17.386 21.7817 17.1952C19.2677 16.3092 16.1816 19.2732 18.3657 21.9872C19.5397 23.4472 20.4457 23.8952 20.3577 25.5512C20.2977 26.7152 19.1537 27.9333 17.6457 28.3973C16.3356 28.8013 14.8896 28.2673 13.9756 27.2453C12.8576 25.9972 12.9716 24.8212 12.9616 24.3092M23.3777 18.0992L24.7517 16.7212M14.0716 27.4013L12.7656 28.7073" stroke="#CB2123" stroke-width="1.5" stroke-linecap="round" stroke-linejoin="round"/>
</svg>
