<svg width="42" height="42" viewBox="0 0 42 42" fill="none" xmlns="http://www.w3.org/2000/svg">
<path d="M21 41C32.0457 41 41 32.0457 41 21C41 9.9543 32.0457 1 21 1C9.9543 1 1 9.9543 1 21C1 32.0457 9.9543 41 21 41Z" stroke="#CB2123" stroke-width="2" stroke-linecap="round" stroke-linejoin="round"/>
<path d="M3.60156 11L17.6016 19M24.4016 19L38.4016 11M21.0016 25V41" stroke="#CB2123" stroke-width="2" stroke-linecap="round" stroke-linejoin="round"/>
<path d="M21 25C23.2091 25 25 23.2091 25 21C25 18.7909 23.2091 17 21 17C18.7909 17 17 18.7909 17 21C17 23.2091 18.7909 25 21 25Z" stroke="#CB2123" stroke-width="2" stroke-linecap="round" stroke-linejoin="round"/>
</svg>
