<svg width="38" height="42" viewBox="0 0 38 42" fill="none" xmlns="http://www.w3.org/2000/svg">
<path d="M19 9V41M33 23L37 21C37 25.7739 35.1036 30.3523 31.7279 33.7279C28.3523 37.1036 23.7739 39 19 39C14.2261 39 9.64773 37.1036 6.27208 33.7279C2.89642 30.3523 1 25.7739 1 21L5 23M13 19H25" stroke="#CB2123" stroke-width="2" stroke-linecap="round" stroke-linejoin="round"/>
<path d="M19 9C21.2091 9 23 7.20914 23 5C23 2.79086 21.2091 1 19 1C16.7909 1 15 2.79086 15 5C15 7.20914 16.7909 9 19 9Z" stroke="#CB2123" stroke-width="2" stroke-linecap="round" stroke-linejoin="round"/>
</svg>
