<svg width="48" height="24" viewBox="0 0 48 24" fill="none" xmlns="http://www.w3.org/2000/svg">
<path d="M10.9082 1H28.3633C28.5575 1.00005 28.7486 1.04811 28.9199 1.13965C29.0913 1.23129 29.2378 1.36382 29.3457 1.52539L33.0596 7.09961L33.3564 7.5459H45.8174C46.0312 7.54579 46.2413 7.60316 46.4248 7.71289C46.6083 7.82266 46.7583 7.98052 46.8594 8.16895C46.9604 8.35737 47.0091 8.56967 46.999 8.7832C46.9889 8.99683 46.9202 9.20378 46.8018 9.38184L40.0381 19.5498C39.3326 20.6113 38.3753 21.482 37.252 22.084C36.1287 22.6858 34.874 23.0005 33.5996 23H2.18164C1.99091 22.9999 1.80277 22.9537 1.63379 22.8652C1.46469 22.7766 1.31868 22.6481 1.20996 22.4912C1.10132 22.3343 1.03232 22.1532 1.00879 21.9639C0.985263 21.7744 1.0082 21.5821 1.0752 21.4033L4.34766 12.6758C4.43208 12.4507 4.5837 12.2571 4.78125 12.1201C4.97891 11.9831 5.21358 11.9093 5.4541 11.9092H10.0293L10.2432 11.1963L12.2061 4.65137L12.5928 3.36328H10.9082C10.6189 3.36321 10.3393 3.25767 10.123 3.06543C9.91242 2.87814 9.77561 2.62151 9.7373 2.34277L9.72656 2.16602C9.73067 1.85829 9.85436 1.56361 10.0723 1.3457C10.2939 1.12412 10.5948 1 10.9082 1ZM14.8467 4.07617L12.8809 10.6211L12.4941 11.9092H17.9551C18.9184 11.9092 19.8714 11.7234 20.7695 11.3604L28.5303 8.2666L28.5342 8.26465C28.7802 8.16545 29.0297 8.0764 29.2822 7.99707L30.5547 7.59668L29.8135 6.4873L28.0244 3.80859L27.7275 3.36328H15.0605L14.8467 4.07617Z" stroke="#CB2123" stroke-width="2"/>
</svg>
