<svg width="42" height="42" viewBox="0 0 42 42" fill="none" xmlns="http://www.w3.org/2000/svg">
<path d="M18.5296 18.5303L7.41992 7.42065" stroke="#CB2123" stroke-width="1.5"/>
<path d="M5.19643 10.7535L10.7513 5.19865L4.08547 1.86576L1.86354 4.08769L5.19643 10.7535ZM38.4698 14.0308C39.5366 12.965 40.2705 11.612 40.5821 10.1366C40.8938 8.66119 40.7697 7.127 40.2251 5.72081L37.0655 8.88039H32.6217V4.43653L35.7813 1.27695C34.375 0.731115 32.8403 0.606065 31.3642 0.917036C29.8881 1.22801 28.5343 1.96158 27.4677 3.02837C26.4012 4.09516 25.6679 5.44912 25.3573 6.92529C25.0466 8.40146 25.172 9.93612 25.7182 11.3423L11.3423 25.7204C9.93612 25.1742 8.40146 25.0488 6.92529 25.3595C5.44912 25.6701 4.09516 26.4034 3.02837 27.47C1.96158 28.5365 1.22801 29.8903 0.917036 31.3664C0.606065 32.8425 0.731115 34.3772 1.27695 35.7835L4.43431 32.6239H8.87817V37.0678L5.71859 40.2273C7.12452 40.7732 8.65883 40.8984 10.1347 40.5878C11.6105 40.2772 12.9642 39.5442 14.0309 38.478C15.0976 37.4118 15.8312 36.0584 16.1424 34.5827C16.4537 33.107 16.3291 31.5726 15.7839 30.1665L30.1642 15.7861C31.5698 16.3298 33.1031 16.4533 34.5776 16.1417C36.0522 15.8301 37.4044 15.0967 38.4698 14.0308Z" stroke="#CB2123" stroke-width="1.5" stroke-linejoin="round"/>
<path d="M20.3008 26.307L32.7525 38.7587C33.0311 39.0378 33.362 39.2593 33.7263 39.4104C34.0906 39.5615 34.4811 39.6393 34.8755 39.6393C35.2699 39.6393 35.6604 39.5615 36.0247 39.4104C36.389 39.2593 36.72 39.0378 36.9986 38.7587L38.7583 36.9989C39.0375 36.7203 39.2589 36.3894 39.41 36.0251C39.5611 35.6608 39.6389 35.2703 39.6389 34.8759C39.6389 34.4815 39.5611 34.091 39.41 33.7267C39.2589 33.3624 39.0375 33.0314 38.7583 32.7528L26.3067 20.3011" stroke="#CB2123" stroke-width="1.5" stroke-linejoin="round"/>
</svg>
