<svg width="16" height="16" viewBox="0 0 16 16" fill="none" xmlns="http://www.w3.org/2000/svg">
<path d="M13.1891 6.59454C13.1891 2.9593 10.2298 0 6.59454 0C2.9593 0 0 2.9593 0 6.59454C0 10.2298 2.9593 13.1891 6.59454 13.1891C8.11953 13.1891 9.51262 12.6698 10.6337 11.796L14.8377 16L16 14.8377L11.796 10.6337C12.6957 9.47922 13.1858 8.05822 13.1891 6.59454ZM1.64863 6.59454C1.64863 3.86605 3.86605 1.64863 6.59454 1.64863C9.32303 1.64863 11.5404 3.86605 11.5404 6.59454C11.5404 9.32303 9.32303 11.5404 6.59454 11.5404C3.86605 11.5404 1.64863 9.32303 1.64863 6.59454Z" fill="white"/>
</svg>
